P2
6 3
255
0 0 0 0 0 255
255 0 0 0 0 255
0 0 0 255 0 0
